<svg width="16" height="18" viewBox="0 0 16 18" fill="none" xmlns="http://www.w3.org/2000/svg">
<g clip-path="url(#clip0_3_35)">
<path d="M10.6667 9C10.6667 9.82812 10.4063 10.5352 9.88542 11.1211C9.36458 11.707 8.73611 12 8 12C7.26389 12 6.63542 11.707 6.11458 11.1211C5.59375 10.5352 5.33333 9.82812 5.33333 9C5.33333 8.17188 5.59375 7.46484 6.11458 6.87891C6.63542 6.29297 7.26389 6 8 6C8.73611 6 9.36458 6.29297 9.88542 6.87891C10.4063 7.46484 10.6667 8.17188 10.6667 9ZM12.1042 9C12.1042 7.71875 11.7049 6.62891 10.9063 5.73047C10.1076 4.83203 9.13889 4.38281 8 4.38281C6.86111 4.38281 5.89236 4.83203 5.09375 5.73047C4.29514 6.62891 3.89583 7.71875 3.89583 9C3.89583 10.2813 4.29514 11.3711 5.09375 12.2695C5.89236 13.168 6.86111 13.6172 8 13.6172C9.13889 13.6172 10.1076 13.168 10.9063 12.2695C11.7049 11.3711 12.1042 10.2813 12.1042 9ZM13.2292 13.8047C13.2292 13.5078 13.1354 13.2539 12.9479 13.043C12.7604 12.832 12.5347 12.7266 12.2708 12.7266C12.0069 12.7266 11.7813 12.832 11.5938 13.043C11.4063 13.2539 11.3125 13.5078 11.3125 13.8047C11.3125 14.1016 11.4063 14.3555 11.5938 14.5664C11.7813 14.7773 12.0069 14.8828 12.2708 14.8828C12.5347 14.8828 12.7604 14.7773 12.9479 14.5664C13.1354 14.3555 13.2292 14.1016 13.2292 13.8047ZM8 16.3828C7.95139 16.3828 7.68576 16.3848 7.20313 16.3887C6.72049 16.3926 6.35417 16.3926 6.10417 16.3887C5.85417 16.3848 5.5191 16.373 5.09896 16.3535C4.67882 16.334 4.32118 16.2949 4.02604 16.2363C3.7309 16.1777 3.48264 16.1055 3.28125 16.0195C2.93403 15.8633 2.62847 15.6367 2.36458 15.3398C2.10069 15.043 1.89931 14.6992 1.76042 14.3086C1.68403 14.082 1.61979 13.8027 1.56771 13.4707C1.51563 13.1387 1.4809 12.7363 1.46354 12.2637C1.44618 11.791 1.43576 11.4141 1.43229 11.1328C1.42882 10.8516 1.42882 10.4395 1.43229 9.89648C1.43576 9.35352 1.4375 9.05469 1.4375 9C1.4375 8.94531 1.43576 8.64648 1.43229 8.10352C1.42882 7.56055 1.42882 7.14844 1.43229 6.86719C1.43576 6.58594 1.44618 6.20898 1.46354 5.73633C1.4809 5.26367 1.51563 4.86133 1.56771 4.5293C1.61979 4.19727 1.68403 3.91797 1.76042 3.69141C1.89931 3.30078 2.10069 2.95703 2.36458 2.66016C2.62847 2.36328 2.93403 2.13672 3.28125 1.98047C3.48264 1.89453 3.7309 1.82227 4.02604 1.76367C4.32118 1.70508 4.67882 1.66602 5.09896 1.64648C5.5191 1.62695 5.85417 1.61523 6.10417 1.61133C6.35417 1.60742 6.72049 1.60742 7.20313 1.61133C7.68576 1.61523 7.95139 1.61719 8 1.61719C8.04861 1.61719 8.31424 1.61523 8.79688 1.61133C9.27951 1.60742 9.64583 1.60742 9.89583 1.61133C10.1458 1.61523 10.4809 1.62695 10.901 1.64648C11.3212 1.66602 11.6788 1.70508 11.974 1.76367C12.2691 1.82227 12.5174 1.89453 12.7188 1.98047C13.066 2.13672 13.3715 2.36328 13.6354 2.66016C13.8993 2.95703 14.1007 3.30078 14.2396 3.69141C14.316 3.91797 14.3802 4.19727 14.4323 4.5293C14.4844 4.86133 14.5191 5.26367 14.5365 5.73633C14.5538 6.20898 14.5642 6.58594 14.5677 6.86719C14.5712 7.14844 14.5712 7.56055 14.5677 8.10352C14.5642 8.64648 14.5625 8.94531 14.5625 9C14.5625 9.05469 14.5642 9.35352 14.5677 9.89648C14.5712 10.4395 14.5712 10.8516 14.5677 11.1328C14.5642 11.4141 14.5538 11.791 14.5365 12.2637C14.5191 12.7363 14.4844 13.1387 14.4323 13.4707C14.3802 13.8027 14.316 14.082 14.2396 14.3086C14.1007 14.6992 13.8993 15.043 13.6354 15.3398C13.3715 15.6367 13.066 15.8633 12.7188 16.0195C12.5174 16.1055 12.2691 16.1777 11.974 16.2363C11.6788 16.2949 11.3212 16.334 10.901 16.3535C10.4809 16.373 10.1458 16.3848 9.89583 16.3887C9.64583 16.3926 9.27951 16.3926 8.79688 16.3887C8.31424 16.3848 8.04861 16.3828 8 16.3828ZM16 9C16 7.21094 15.9826 5.97266 15.9479 5.28516C15.8785 3.66016 15.4479 2.40234 14.6563 1.51172C13.8646 0.621094 12.7465 0.136719 11.3021 0.0585938C10.691 0.0195313 9.59028 0 8 0C6.40972 0 5.30903 0.0195313 4.69792 0.0585938C3.25347 0.136719 2.13542 0.621094 1.34375 1.51172C0.552083 2.40234 0.121528 3.66016 0.0520833 5.28516C0.0173611 5.97266 0 7.21094 0 9C0 10.7891 0.0173611 12.0273 0.0520833 12.7148C0.121528 14.3398 0.552083 15.5977 1.34375 16.4883C2.13542 17.3789 3.25347 17.8633 4.69792 17.9414C5.30903 17.9805 6.40972 18 8 18C9.59028 18 10.691 17.9805 11.3021 17.9414C12.7465 17.8633 13.8646 17.3789 14.6563 16.4883C15.4479 15.5977 15.8785 14.3398 15.9479 12.7148C15.9826 12.0273 16 10.7891 16 9Z" fill="black"/>
</g>
<defs>
<clipPath id="clip0_3_35">
<rect width="16" height="18" fill="white" transform="matrix(1 0 0 -1 0 18)"/>
</clipPath>
</defs>
</svg>
