<svg width="23" height="25" viewBox="0 0 23 25" fill="none" xmlns="http://www.w3.org/2000/svg">
<path d="M5.22248 8.1233V25H0.344556V8.1233H5.22248ZM5.53289 2.91213C5.54275 3.74092 5.29392 4.43347 4.78642 4.98978C4.27892 5.54609 3.61129 5.82425 2.78352 5.82425H2.75395C1.94589 5.82425 1.2955 5.54609 0.802785 4.98978C0.310065 4.43347 0.0637054 3.74092 0.0637054 2.91213C0.0637054 2.07198 0.317456 1.37659 0.824957 0.825954C1.33246 0.275318 1.99517 0 2.81308 0C3.631 0 4.28631 0.275318 4.77903 0.825954C5.27175 1.37659 5.52304 2.07198 5.53289 2.91213ZM22.7682 15.327V25H17.9051V15.9741C17.9051 14.782 17.7055 13.8482 17.3064 13.1727C16.9073 12.4972 16.284 12.1594 15.4366 12.1594C14.8157 12.1594 14.2959 12.3552 13.8771 12.7469C13.4583 13.1386 13.1454 13.624 12.9385 14.203C12.8301 14.5436 12.7759 15.0034 12.7759 15.5824V25H7.91273C7.93244 20.47 7.94229 16.7972 7.94229 13.9816C7.94229 11.166 7.93736 9.48569 7.92751 8.94074L7.91273 8.1233H12.7759V10.5756H12.7463C12.9434 10.2123 13.1454 9.89441 13.3524 9.62193C13.5593 9.34945 13.8377 9.05427 14.1875 8.73638C14.5373 8.41848 14.966 8.17155 15.4735 7.99557C15.981 7.8196 16.5452 7.73161 17.166 7.73161C18.8511 7.73161 20.2061 8.37591 21.2309 9.66451C22.2558 10.9531 22.7682 12.8406 22.7682 15.327Z" fill="black"/>
</svg>
