<svg width="28" height="25" viewBox="0 0 28 25" fill="none" xmlns="http://www.w3.org/2000/svg">
<path d="M27.1284 2.94118C26.146 3.45588 25.0872 3.79412 23.99 3.95588C25.1127 3.17647 25.9802 1.94118 26.3884 0.455882C25.3296 1.19118 24.1559 1.70588 22.9184 2C21.9105 0.735294 20.4944 0 18.887 0C15.8889 0 13.4395 2.82353 13.4395 6.30882C13.4395 6.80882 13.4905 7.29412 13.5798 7.75C9.03811 7.48529 4.99396 4.97059 2.30211 1.16176C1.83008 2.08824 1.56217 3.17647 1.56217 4.32353C1.56217 6.51471 2.51899 8.45588 3.99887 9.55882C3.09308 9.55882 2.25108 9.26471 1.51114 8.82353V8.86765C1.51114 11.9265 3.39926 14.4853 5.89975 15.0588C5.09695 15.3121 4.25414 15.3473 3.43753 15.1618C3.78404 16.4154 4.46265 17.5124 5.37798 18.2984C6.29331 19.0845 7.39933 19.5201 8.54057 19.5441C6.60604 21.3095 4.20809 22.2637 1.74077 22.25C1.30701 22.25 0.873257 22.2206 0.439499 22.1618C2.86344 23.9559 5.74665 25 8.83399 25C18.887 25 24.411 15.3824 24.411 7.04412C24.411 6.76471 24.411 6.5 24.3982 6.22059C25.4699 5.33823 26.3884 4.22059 27.1284 2.94118Z" fill="black"/>
</svg>
