<svg width="16" height="22" viewBox="0 0 16 22" fill="none" xmlns="http://www.w3.org/2000/svg">
<g clip-path="url(#clip0_2690_107)">
<path d="M10.6667 11.0561C10.6667 12.0631 10.4062 12.9228 9.88542 13.6353C9.36458 14.3478 8.73611 14.7041 8 14.7041C7.26389 14.7041 6.63542 14.3478 6.11458 13.6353C5.59375 12.9228 5.33333 12.0631 5.33333 11.0561C5.33333 10.0491 5.59375 9.18934 6.11458 8.47685C6.63542 7.76435 7.26389 7.40811 8 7.40811C8.73611 7.40811 9.36458 7.76435 9.88542 8.47685C10.4062 9.18934 10.6667 10.0491 10.6667 11.0561ZM12.1042 11.0561C12.1042 9.49809 11.7049 8.17285 10.9062 7.08036C10.1076 5.98787 9.13889 5.44162 8 5.44162C6.86111 5.44162 5.89236 5.98787 5.09375 7.08036C4.29514 8.17285 3.89583 9.49809 3.89583 11.0561C3.89583 12.6141 4.29514 13.9393 5.09375 15.0318C5.89236 16.1243 6.86111 16.6705 8 16.6705C9.13889 16.6705 10.1076 16.1243 10.9062 15.0318C11.7049 13.9393 12.1042 12.6141 12.1042 11.0561ZM13.2292 16.8985C13.2292 16.5375 13.1354 16.2288 12.9479 15.9723C12.7604 15.7158 12.5347 15.5875 12.2708 15.5875C12.0069 15.5875 11.7812 15.7158 11.5938 15.9723C11.4062 16.2288 11.3125 16.5375 11.3125 16.8985C11.3125 17.2595 11.4062 17.5683 11.5938 17.8248C11.7812 18.0813 12.0069 18.2095 12.2708 18.2095C12.5347 18.2095 12.7604 18.0813 12.9479 17.8248C13.1354 17.5683 13.2292 17.2595 13.2292 16.8985ZM8 20.0335C7.95139 20.0335 7.68576 20.0359 7.20312 20.0406C6.72049 20.0454 6.35417 20.0454 6.10417 20.0406C5.85417 20.0359 5.5191 20.0216 5.09896 19.9979C4.67882 19.9741 4.32118 19.9266 4.02604 19.8554C3.7309 19.7841 3.48264 19.6963 3.28125 19.5918C2.93403 19.4018 2.62847 19.1263 2.36458 18.7653C2.10069 18.4043 1.89931 17.9863 1.76042 17.5113C1.68403 17.2358 1.61979 16.8962 1.56771 16.4924C1.51562 16.0887 1.4809 15.5994 1.46354 15.0247C1.44618 14.4499 1.43576 13.9916 1.43229 13.6496C1.42882 13.3076 1.42882 12.8064 1.43229 12.1462C1.43576 11.486 1.4375 11.1226 1.4375 11.0561C1.4375 10.9896 1.43576 10.6262 1.43229 9.96596C1.42882 9.30572 1.42882 8.8046 1.43229 8.4626C1.43576 8.1206 1.44618 7.66223 1.46354 7.08748C1.4809 6.51274 1.51562 6.02349 1.56771 5.61975C1.61979 5.216 1.68403 4.87638 1.76042 4.60088C1.89931 4.12588 2.10069 3.70788 2.36458 3.34689C2.62847 2.98589 2.93403 2.71039 3.28125 2.52039C3.48264 2.41589 3.7309 2.32802 4.02604 2.25677C4.32118 2.18552 4.67882 2.13802 5.09896 2.11427C5.5191 2.09052 5.85417 2.07627 6.10417 2.07152C6.35417 2.06677 6.72049 2.06677 7.20312 2.07152C7.68576 2.07627 7.95139 2.07865 8 2.07865C8.04861 2.07865 8.31424 2.07627 8.79688 2.07152C9.27951 2.06677 9.64583 2.06677 9.89583 2.07152C10.1458 2.07627 10.4809 2.09052 10.901 2.11427C11.3212 2.13802 11.6788 2.18552 11.974 2.25677C12.2691 2.32802 12.5174 2.41589 12.7188 2.52039C13.066 2.71039 13.3715 2.98589 13.6354 3.34689C13.8993 3.70788 14.1007 4.12588 14.2396 4.60088C14.316 4.87638 14.3802 5.216 14.4323 5.61975C14.4844 6.02349 14.5191 6.51274 14.5365 7.08748C14.5538 7.66223 14.5642 8.1206 14.5677 8.4626C14.5712 8.8046 14.5712 9.30572 14.5677 9.96596C14.5642 10.6262 14.5625 10.9896 14.5625 11.0561C14.5625 11.1226 14.5642 11.486 14.5677 12.1462C14.5712 12.8064 14.5712 13.3076 14.5677 13.6496C14.5642 13.9916 14.5538 14.4499 14.5365 15.0247C14.5191 15.5994 14.4844 16.0887 14.4323 16.4924C14.3802 16.8962 14.316 17.2358 14.2396 17.5113C14.1007 17.9863 13.8993 18.4043 13.6354 18.7653C13.3715 19.1263 13.066 19.4018 12.7188 19.5918C12.5174 19.6963 12.2691 19.7841 11.974 19.8554C11.6788 19.9266 11.3212 19.9741 10.901 19.9979C10.4809 20.0216 10.1458 20.0359 9.89583 20.0406C9.64583 20.0454 9.27951 20.0454 8.79688 20.0406C8.31424 20.0359 8.04861 20.0335 8 20.0335ZM16 11.0561C16 8.8806 15.9826 7.37486 15.9479 6.53886C15.8785 4.56288 15.4479 3.03339 14.6562 1.9504C13.8646 0.867405 12.7465 0.278408 11.3021 0.183409C10.691 0.13591 9.59028 0.11216 8 0.11216C6.40972 0.11216 5.30903 0.13591 4.69792 0.183409C3.25347 0.278408 2.13542 0.867405 1.34375 1.9504C0.552083 3.03339 0.121528 4.56288 0.0520833 6.53886C0.0173611 7.37486 0 8.8806 0 11.0561C0 13.2316 0.0173611 14.7373 0.0520833 15.5733C0.121528 17.5493 0.552083 19.0788 1.34375 20.1618C2.13542 21.2448 3.25347 21.8338 4.69792 21.9288C5.30903 21.9763 6.40972 22 8 22C9.59028 22 10.691 21.9763 11.3021 21.9288C12.7465 21.8338 13.8646 21.2448 14.6562 20.1618C15.4479 19.0788 15.8785 17.5493 15.9479 15.5733C15.9826 14.7373 16 13.2316 16 11.0561Z" fill="black"/>
</g>
<defs>
<clipPath id="clip0_2690_107">
<rect width="16" height="21.8878" fill="white" transform="matrix(1 0 0 -1 0 22)"/>
</clipPath>
</defs>
</svg>
