<svg width="17" height="21" viewBox="0 0 17 21" fill="none" xmlns="http://www.w3.org/2000/svg">
<path d="M4.45475 6.7936V20.9078H1.01725V6.7936H4.45475ZM4.6735 2.43544C4.68045 3.12857 4.5051 3.70776 4.14746 4.17301C3.78982 4.63826 3.31934 4.87088 2.736 4.87088H2.71517C2.14572 4.87088 1.68739 4.63826 1.34017 4.17301C0.992947 3.70776 0.819336 3.12857 0.819336 2.43544C0.819336 1.73282 0.998155 1.15126 1.35579 0.690753C1.71343 0.230251 2.18045 0 2.75684 0C3.33322 0 3.79503 0.230251 4.14225 0.690753C4.48948 1.15126 4.66656 1.73282 4.6735 2.43544ZM16.8193 12.8181V20.9078H13.3923V13.3593C13.3923 12.3624 13.2516 11.5814 12.9704 11.0164C12.6891 10.4515 12.2499 10.169 11.6527 10.169C11.2152 10.169 10.8489 10.3328 10.5537 10.6604C10.2586 10.988 10.0381 11.3939 9.89225 11.8781C9.81586 12.163 9.77767 12.5475 9.77767 13.0317V20.9078H6.35059C6.36447 17.1193 6.37142 14.0477 6.37142 11.693C6.37142 9.33823 6.36795 7.93298 6.361 7.47723L6.35059 6.7936H9.77767V8.84449H9.75684C9.89573 8.54066 10.0381 8.2748 10.1839 8.04692C10.3298 7.81904 10.5259 7.57218 10.7725 7.30632C11.019 7.04046 11.3211 6.83395 11.6787 6.68678C12.0364 6.53961 12.4339 6.46602 12.8714 6.46602C14.0589 6.46602 15.0138 7.00486 15.736 8.08253C16.4582 9.1602 16.8193 10.7387 16.8193 12.8181Z" fill="black"/>
</svg>
