<svg width="17" height="18" viewBox="0 0 17 18" fill="none" xmlns="http://www.w3.org/2000/svg">
<path d="M16.3687 2.09253C15.7797 2.45872 15.1449 2.69936 14.4872 2.81445C15.1602 2.25993 15.6803 1.38107 15.9251 0.324342C15.2903 0.847474 14.5866 1.21367 13.8448 1.42292C13.2405 0.523132 12.3916 0 11.4279 0C9.6306 0 8.16215 2.00883 8.16215 4.48847C8.16215 4.8442 8.19275 5.18947 8.24628 5.51381C5.52353 5.32548 3.09905 3.53637 1.48529 0.826548C1.2023 1.48569 1.04169 2.25993 1.04169 3.07602C1.04169 4.63495 1.61531 6.01602 2.5025 6.80071C1.95947 6.80071 1.45469 6.59146 1.0111 6.27758V6.30897C1.0111 8.4852 2.14303 10.3057 3.64208 10.7137C3.1608 10.8939 2.65553 10.919 2.16598 10.787C2.37371 11.6789 2.78054 12.4593 3.32928 13.0186C3.87802 13.5778 4.54108 13.8878 5.22525 13.9048C4.0655 15.1608 2.62792 15.8397 1.14877 15.83C0.888729 15.83 0.628691 15.809 0.368652 15.7672C1.82181 17.0436 3.5503 17.7865 5.40116 17.7865C11.4279 17.7865 14.7396 10.9439 14.7396 5.0116C14.7396 4.81281 14.7396 4.62449 14.7319 4.42569C15.3744 3.79794 15.9251 3.00278 16.3687 2.09253Z" fill="black"/>
</svg>
